# xmcd
#
# Track frame offsets:
#	150
#	12665
#	23177
#	31340
#	34947
#	43497
#	51380
#	69262
#	74997
#
# Disc length: 1081 seconds
#
# Revision: 1
# Processed by: cddbd v1.5.1PL0 Copyright (c) Steve Scherf et al.
# Submitted via: CDex 1.50Beta5
#
DISCID=89043709
DTITLE=SHINING FORCE - SHINING FORCE
DYEAR=1900
DGENRE=
TTITLE0=はるかなる時の旅人(End Theme)
TTITLE1=永遠の木漏れ日
TTITLE2=光の軍勢
TTITLE3=剣よ!敵を討て!
TTITLE4=我に力を
TTITLE5=灯の消ゆる時
TTITLE6=聖戦
TTITLE7=悪魔の息吹
TTITLE8=アーマゲドン
EXTD=
EXTT0=
EXTT1=
EXTT2=
EXTT3=
EXTT4=
EXTT5=
EXTT6=
EXTT7=
EXTT8=
PLAYORDER=
